<?xml version="1.0" encoding="UTF-8"?>
<svg id="Layer_1" xmlns="http://www.w3.org/2000/svg" version="1.1" viewBox="0 0 600 600">
  <!-- Generator: Adobe Illustrator 29.2.1, SVG Export Plug-In . SVG Version: 2.1.0 Build 116)  -->
  <defs>
    <style>
      .st0 {
        fill: #343551;
      }

      .st1 {
        fill: #fff;
      }

      .st2 {
        fill: #7d96d1;
      }

      .st3 {
        stroke: #fff;
        stroke-linecap: round;
        stroke-linejoin: round;
        stroke-width: 2px;
      }

      .st3, .st4 {
        fill: none;
      }

      .st5 {
        fill: #ff8f8e;
      }

      .st6 {
        fill: #fd8e8d;
      }

      .st7 {
        fill: #ffdc8a;
      }

      .st4 {
        stroke: #fad88b;
        stroke-miterlimit: 10;
        stroke-width: 3px;
      }

      .st8 {
        fill: #ffe7b8;
      }

      .st9 {
        fill: #fad88b;
      }
    </style>
  </defs>
  <rect class="st9" width="600" height="600"/>
  <ellipse class="st6" cx="248" cy="494" rx="182" ry="31"/>
  <path class="st3" d="M100.4,501c35.2,11.3,72.7,12.2,109.7,13.1,59.8,1.4,120.6,2.6,178.1-13.6,3.9-1.1,7.9-2.4,10.6-5.7s2.3-4.4,1.6-6.7c-1.3-4.7-6.8-6-11.5-6.5-82.7-9.9-166.2-13.5-249.5-10.7-5,.2-10.2.4-14.9,2.1s-9.2,5.1-10.7,9.9c-2.5,7.5,2.8,15.7,9.7,19.3,7,3.6,15.2,3.8,23,3.9,34.7.4,69.5.8,104.2,1.2,33.8.4,67.8.8,101.2-4.6,3.9-.6,7.9-1.4,10.8-4.3s2.6-4.1,2.1-6.4c-1-4.7-6.6-6.2-11.2-6.8-68.3-9.3-137.3-13.6-206.3-12.9-5.5,0-11.2.2-15.8,3.6s-4.5,5.2-4.2,8.6c.6,7.4,9.7,10,17,10.8,52.7,5.8,105.8,7.1,158.7,4,5.2-.3,10.6-.8,15.6-2.1s4.3-8.2-.6-8.9c-57.2-8.3-115-12.1-172.8-11.4-2.7,0-5.3,1.7-6.1,4.3-1.7,5.3,4.9,8,9.9,8.6,39.4,5.1,79.1,7.4,118.8,6.8,4.8,0,9.7-.2,14.5-.9s4.2-6.8,0-7.3c-37.3-5-74.9-9.2-112.3-7-2.5.1-2.7,3.7-.3,4.2,27.6,5.5,55.8,8.4,84,8.7,2.1,0,2.4-3,.4-3.4-23-4.7-46.5-7.1-70-7.3"/>
  <g>
    <rect class="st8" x="46.5" y="73" width="162" height="228"/>
    <rect class="st8" x="219" y="134" width="162" height="228"/>
    <rect class="st8" x="391.5" y="59" width="162" height="228"/>
  </g>
  <line class="st4" x1="46" y1="126" x2="208" y2="126"/>
  <line class="st4" x1="46" y1="225.5" x2="208" y2="225.5"/>
  <line class="st4" x1="127.5" y1="73.5" x2="127.5" y2="301.5"/>
  <line class="st4" x1="223" y1="186" x2="385" y2="186"/>
  <line class="st4" x1="223" y1="285.5" x2="385" y2="285.5"/>
  <line class="st4" x1="304.5" y1="133.5" x2="304.5" y2="361.5"/>
  <line class="st4" x1="391" y1="112" x2="553" y2="112"/>
  <line class="st4" x1="391" y1="211.5" x2="553" y2="211.5"/>
  <line class="st4" x1="472.5" y1="59.5" x2="472.5" y2="287.5"/>
  <g>
    <path class="st2" d="M497.5,102.5c4.7,4.7,7,10.8,7,16.9,0,6.1-2.3,12.2-7,16.9l-37.2,37.2-33.8-33.8,37.2-37.2c9.3-9.3,24.5-9.3,33.8,0Z"/>
    <rect class="st5" x="71" y="286.9" width="436.3" height="47.8" transform="translate(-135.1 295.5) rotate(-45)"/>
    <polygon class="st1" points="107.9 478 122 492.1 100.5 499.5 107.9 478"/>
    <polygon class="st0" points="118 448.2 151.8 482 122 492.1 107.9 478 118 448.2"/>
    <rect class="st7" x="61.5" y="299.1" width="436.3" height="4.3" transform="translate(-131.2 286) rotate(-45)"/>
    <rect class="st7" x="69.8" y="307.4" width="436.3" height="4.3" transform="translate(-134.6 294.3) rotate(-45)"/>
    <rect class="st7" x="78.1" y="315.7" width="436.3" height="4.3" transform="translate(-138 302.6) rotate(-45)"/>
  </g>
</svg>